<?xml version="1.0" encoding="utf-8"?>
<!-- Generator: Adobe Illustrator 23.0.2, SVG Export Plug-In . SVG Version: 6.00 Build 0)  -->
<svg version="1.1" id="Capa_1" xmlns="http://www.w3.org/2000/svg" xmlns:xlink="http://www.w3.org/1999/xlink" x="0px" y="0px"
	 viewBox="0 0 51.56 51.56" style="enable-background:new 0 0 51.56 51.56;" xml:space="preserve">
<style type="text/css">
	.st0{fill:#FFFFFF;}
</style>
<g>
	<g>
		<path class="st0" d="M-408.81-22.99h-0.9V-41.9c0-4.5-3.6-8.1-8.1-8.1c-3.98,0-6.85,2.95-7.17,7.28c-2.09,0.4-3.63,2.2-3.63,4.42
			c0,0.54,0.36,0.9,0.9,0.9h7.2c0.54,0,0.9-0.36,0.9-0.9c0-2.2-1.51-3.98-3.56-4.41c0.27-2.86,1.99-5.5,5.36-5.5
			c3.51,0,6.3,2.79,6.3,6.3v18.91h-27.1c-0.41-2.08-2.2-3.6-4.41-3.6c-0.9-1.08-2.16-1.8-3.6-1.8c-1.71,0-3.24,0.99-3.96,2.43
			c-0.72-0.36-1.53-0.63-2.34-0.63c-2.21,0-4.01,1.52-4.41,3.6h-0.09c-1.53,0-2.7,1.17-2.7,2.7c0,1.53,1.17,2.7,2.7,2.7h1.08
			l2.43,9.63c0.72,2.79,3.24,4.77,6.12,4.77h0.72l-1.17,2.34c-0.27,0.45-0.09,0.99,0.36,1.17c0.09,0.09,0.27,0.09,0.36,0.09
			c0.36,0,0.63-0.18,0.81-0.45l1.58-3.15h24.98l1.53,3.06c0.18,0.36,0.45,0.54,0.81,0.54c0.18,0,0.27,0,0.36-0.18
			c0.36-0.18,0.54-0.72,0.36-1.17l-1.13-2.26c2.79-0.1,5.2-2.05,5.9-4.68l2.45-9.72h1.06c1.53,0,2.7-1.17,2.7-2.7
			C-406.11-21.82-407.28-22.99-408.81-22.99z M-421.5-39.2h-5.13c0.36-1.08,1.44-1.8,2.61-1.8S-421.86-40.28-421.5-39.2z
			 M-452.92-24.79c0.81,0,1.53,0.36,2.16,0.99c0.18,0.27,0.54,0.36,0.9,0.27c0.36-0.09,0.54-0.36,0.63-0.72
			c0.27-1.35,1.35-2.34,2.7-2.34c0.99,0,1.89,0.45,2.34,1.35c0.18,0.36,0.63,0.54,0.99,0.45c0.09,0,0.18,0,0.27,0
			c1.17,0,2.16,0.72,2.52,1.8h-15.04C-455.08-24.07-454.09-24.79-452.92-24.79z M-413.94-8.41c-0.54,1.98-2.34,3.42-4.41,3.42
			h-29.35c-2.07,0-3.87-1.44-4.41-3.42l-2.34-9.18h42.67L-413.94-8.41z M-408.81-19.39h-1.8h-45.01h-1.8c-0.54,0-0.9-0.36-0.9-0.9
			c0-0.54,0.36-0.9,0.9-0.9h0.9h17.11h30.61c0.54,0,0.9,0.36,0.9,0.9C-407.91-19.75-408.27-19.39-408.81-19.39z"/>
		<path class="st0" d="M-427.71-33.34c0.54,0,0.9-0.36,0.9-0.9v-0.45c0-0.54-0.36-0.9-0.9-0.9c-0.54,0-0.9,0.36-0.9,0.9v0.45
			C-428.61-33.7-428.25-33.34-427.71-33.34z"/>
		<path class="st0" d="M-427.71-29.2c0.54,0,0.9-0.45,0.9-0.9v-0.99c0-0.54-0.36-0.9-0.9-0.9c-0.54,0-0.9,0.36-0.9,0.9v0.99
			C-428.61-29.56-428.25-29.2-427.71-29.2z"/>
		<path class="st0" d="M-427.71-25.69c0.54,0,0.9-0.36,0.9-0.9v-0.45c0-0.54-0.36-0.9-0.9-0.9c-0.54,0-0.9,0.36-0.9,0.9v0.45
			C-428.61-26.05-428.25-25.69-427.71-25.69z"/>
		<path class="st0" d="M-424.11-33.34c0.54,0,0.9-0.36,0.9-0.9v-0.45c0-0.54-0.36-0.9-0.9-0.9c-0.54,0-0.9,0.36-0.9,0.9v0.45
			C-425.01-33.7-424.65-33.34-424.11-33.34z"/>
		<path class="st0" d="M-425.01-30.1c0,0.54,0.36,0.9,0.9,0.9c0.54,0,0.9-0.45,0.9-0.9v-0.99c0-0.54-0.36-0.9-0.9-0.9
			c-0.54,0-0.9,0.36-0.9,0.9V-30.1z"/>
		<path class="st0" d="M-425.01-26.59c0,0.54,0.36,0.9,0.9,0.9c0.54,0,0.9-0.36,0.9-0.9v-0.45c0-0.54-0.36-0.9-0.9-0.9
			c-0.54,0-0.9,0.36-0.9,0.9V-26.59z"/>
		<path class="st0" d="M-420.51-33.34c0.54,0,0.9-0.36,0.9-0.9v-0.45c0-0.54-0.36-0.9-0.9-0.9c-0.54,0-0.9,0.36-0.9,0.9v0.45
			C-421.41-33.7-421.05-33.34-420.51-33.34z"/>
		<path class="st0" d="M-421.41-30.1c0,0.54,0.36,0.9,0.9,0.9c0.54,0,0.9-0.45,0.9-0.9v-0.99c0-0.54-0.36-0.9-0.9-0.9
			c-0.54,0-0.9,0.36-0.9,0.9L-421.41-30.1L-421.41-30.1z"/>
		<path class="st0" d="M-421.41-26.59c0,0.54,0.36,0.9,0.9,0.9c0.54,0,0.9-0.36,0.9-0.9v-0.45c0-0.54-0.36-0.9-0.9-0.9
			c-0.54,0-0.9,0.36-0.9,0.9V-26.59z"/>
	</g>
</g>
<g>
	<g>
		<g>
			<path class="st0" d="M-330.66-84.81c-3.19,0-5.78,2.58-5.78,5.76c0,3.17,2.59,5.76,5.78,5.76c3.19,0,5.78-2.58,5.78-5.76
				C-324.88-82.23-327.47-84.81-330.66-84.81z"/>
		</g>
	</g>
	<g>
		<g>
			<path class="st0" d="M-316.56-92.65c-3.76-3.76-8.77-5.83-14.09-5.83c-5.31,0-10.3,2.06-14.06,5.79
				c-1.52,1.51-1.52,3.97-0.01,5.49c0.74,0.74,1.72,1.14,2.76,1.14c1.04,0,2.01-0.4,2.75-1.13c2.29-2.27,5.33-3.53,8.56-3.53
				c3.24,0,6.29,1.26,8.58,3.55c0.74,0.73,1.72,1.14,2.76,1.14c1.04,0,2.01-0.4,2.75-1.13C-315.05-88.68-315.05-91.14-316.56-92.65z
				"/>
		</g>
	</g>
	<g>
		<g>
			<path class="st0" d="M-298.46-110.7c-8.6-8.58-20.03-13.3-32.2-13.3c-12.15,0-23.57,4.71-32.17,13.27
				c-1.52,1.51-1.52,3.97,0,5.49c0.74,0.73,1.71,1.14,2.75,1.14c1.04,0,2.02-0.4,2.75-1.13c7.13-7.09,16.59-11,26.66-11
				c10.08,0,19.56,3.91,26.69,11.03c0.74,0.73,1.72,1.14,2.76,1.14c1.04,0,2.02-0.4,2.75-1.14
				C-296.94-106.72-296.94-109.19-298.46-110.7z"/>
		</g>
	</g>
	<g>
		<g>
			<path class="st0" d="M-307.74-101.45c-6.12-6.11-14.26-9.47-22.92-9.47c-8.64,0-16.77,3.35-22.88,9.44
				c-0.74,0.73-1.14,1.71-1.14,2.74c0,1.04,0.4,2.01,1.14,2.74c0.74,0.73,1.71,1.14,2.75,1.14c1.04,0,2.02-0.4,2.75-1.13
				c4.65-4.62,10.82-7.17,17.38-7.17c6.58,0,12.76,2.56,17.41,7.19c0.74,0.73,1.71,1.14,2.76,1.14c1.04,0,2.02-0.4,2.75-1.14
				c0.74-0.73,1.14-1.71,1.14-2.74C-306.6-99.74-307-100.72-307.74-101.45z"/>
		</g>
	</g>
</g>
<g>
	<g>
		<g>
			<path class="st0" d="M-142.42,7.12c-0.85-1.72-1.52-3.07-0.04-5.29c0.32-0.48,0.19-1.12-0.29-1.43
				c-0.47-0.31-1.11-0.19-1.43,0.29c-2.14,3.21-1,5.51-0.09,7.35c0.85,1.73,1.47,2.98,0.09,5.05c-0.32,0.48-0.19,1.12,0.29,1.43
				c0.18,0.12,0.38,0.17,0.57,0.17c0.33,0,0.66-0.16,0.86-0.46C-140.42,11.17-141.52,8.92-142.42,7.12z"/>
		</g>
	</g>
	<g>
		<g>
			<path class="st0" d="M-134.18,7.12c-0.85-1.72-1.52-3.07-0.04-5.29c0.32-0.48,0.19-1.12-0.29-1.43
				c-0.47-0.31-1.12-0.19-1.43,0.29c-2.14,3.21-1,5.51-0.09,7.35c0.85,1.73,1.47,2.98,0.09,5.05c-0.32,0.48-0.19,1.12,0.29,1.43
				c0.18,0.12,0.37,0.17,0.57,0.17c0.33,0,0.66-0.16,0.86-0.46C-132.18,11.17-133.29,8.92-134.18,7.12z"/>
		</g>
	</g>
	<g>
		<g>
			<path class="st0" d="M-125.95,7.12c-0.85-1.72-1.52-3.07-0.04-5.29c0.32-0.48,0.19-1.12-0.29-1.43
				c-0.47-0.31-1.12-0.19-1.43,0.29c-2.14,3.21-1,5.51-0.09,7.35c0.85,1.73,1.47,2.98,0.09,5.05c-0.32,0.48-0.19,1.12,0.29,1.43
				c0.18,0.12,0.37,0.17,0.57,0.17c0.33,0,0.66-0.16,0.86-0.46C-123.95,11.17-125.05,8.92-125.95,7.12z"/>
		</g>
	</g>
	<g>
		<g>
			<path class="st0" d="M-117.6,16.76h-35.14c-2.85,0-5.17,2.32-5.17,5.17v18.6c0,2.85,2.32,5.17,5.17,5.17h35.14
				c2.85,0,5.17-2.32,5.17-5.17v-18.6C-112.43,19.08-114.75,16.76-117.6,16.76z M-114.5,40.53c0,1.71-1.39,3.1-3.1,3.1h-35.14
				c-1.71,0-3.1-1.39-3.1-3.1v-18.6c0-1.71,1.39-3.1,3.1-3.1h35.14c1.71,0,3.1,1.39,3.1,3.1V40.53z"/>
		</g>
	</g>
	<g>
		<g>
			<path class="st0" d="M-150.67,20.9c-0.57,0-1.03,0.46-1.03,1.03v18.6c0,0.57,0.46,1.03,1.03,1.03c0.57,0,1.03-0.46,1.03-1.03
				v-18.6C-149.64,21.36-150.1,20.9-150.67,20.9z"/>
		</g>
	</g>
	<g>
		<g>
			<path class="st0" d="M-144.47,20.9c-0.57,0-1.03,0.46-1.03,1.03v18.6c0,0.57,0.46,1.03,1.03,1.03c0.57,0,1.03-0.46,1.03-1.03
				v-18.6C-143.44,21.36-143.9,20.9-144.47,20.9z"/>
		</g>
	</g>
	<g>
		<g>
			<path class="st0" d="M-138.27,20.9c-0.57,0-1.03,0.46-1.03,1.03v18.6c0,0.57,0.46,1.03,1.03,1.03c0.57,0,1.03-0.46,1.03-1.03
				v-18.6C-137.23,21.36-137.7,20.9-138.27,20.9z"/>
		</g>
	</g>
	<g>
		<g>
			<path class="st0" d="M-132.07,20.9c-0.57,0-1.03,0.46-1.03,1.03v18.6c0,0.57,0.46,1.03,1.03,1.03s1.03-0.46,1.03-1.03v-18.6
				C-131.03,21.36-131.5,20.9-132.07,20.9z"/>
		</g>
	</g>
	<g>
		<g>
			<path class="st0" d="M-125.87,20.9c-0.57,0-1.03,0.46-1.03,1.03v18.6c0,0.57,0.46,1.03,1.03,1.03s1.03-0.46,1.03-1.03v-18.6
				C-124.83,21.36-125.29,20.9-125.87,20.9z"/>
		</g>
	</g>
	<g>
		<g>
			<path class="st0" d="M-119.66,20.9c-0.57,0-1.03,0.46-1.03,1.03v18.6c0,0.57,0.46,1.03,1.03,1.03c0.57,0,1.03-0.46,1.03-1.03
				v-18.6C-118.63,21.36-119.09,20.9-119.66,20.9z"/>
		</g>
	</g>
	<g>
		<g>
			<path class="st0" d="M-148.6,43.63c-0.57,0-1.03,0.46-1.03,1.03v4.13c0,0.57,0.46,1.03,1.03,1.03c0.57,0,1.03-0.46,1.03-1.03
				v-4.13C-147.57,44.1-148.03,43.63-148.6,43.63z"/>
		</g>
	</g>
	<g>
		<g>
			<path class="st0" d="M-121.73,43.63c-0.57,0-1.03,0.46-1.03,1.03v4.13c0,0.57,0.46,1.03,1.03,1.03c0.57,0,1.03-0.46,1.03-1.03
				v-4.13C-120.7,44.1-121.16,43.63-121.73,43.63z"/>
		</g>
	</g>
</g>
<g>
	<circle class="st0" cx="-48.37" cy="22.76" r="0.99"/>
	<path class="st0" d="M-34.82,25.86h-0.19v-2.22c0-9.93-7.39-18.16-16.96-19.49c0.16-0.36,0.24-0.76,0.24-1.18
		c0-1.64-1.33-2.97-2.97-2.97s-2.97,1.33-2.97,2.97c0,0.42,0.09,0.82,0.24,1.18c-9.57,1.33-16.96,9.56-16.96,19.49v2.22h-0.19
		c-1.64,0-2.97,1.33-2.97,2.97c0,1.64,1.33,2.97,2.97,2.97h9.87c-0.08,0.2-0.15,0.41-0.19,0.62l-0.85,4.25
		c-2.6,1.43-3,4.24-3.04,5.48l-3.03,1.99c-0.47,0.31-0.59,0.97-0.25,1.42l3.48,4.63c0.31,0.42,0.92,0.52,1.35,0.22l6.65-4.56
		c3.65-1.29,5.35-3.84,6.31-5.75c1.08-0.74,6-4.09,9.29-6.04c0.81-0.48,1.23-1.37,1.1-2.28h9.05c1.64,0,2.97-1.33,2.97-2.97
		S-33.18,25.86-34.82,25.86L-34.82,25.86z M-55.68,2.97c0-0.55,0.44-0.99,0.99-0.99s0.99,0.44,0.99,0.99s-0.44,0.99-0.99,0.99
		C-55.24,3.96-55.68,3.52-55.68,2.97L-55.68,2.97z M-72.39,23.64c0-9.76,7.94-17.7,17.7-17.7c9.17,0,16.74,7.01,17.61,15.96h-6.82
		c-0.55,0-0.99,0.44-0.99,0.99c0,0.55,0.44,0.99,0.99,0.99h6.91v1.98h-35.4V23.64z M-45.84,32.03c0.04,0.15-0.01,0.27-0.14,0.35
		c-3.75,2.22-9.56,6.22-9.61,6.26c-0.14,0.1-0.25,0.23-0.33,0.38c-1.28,2.63-2.95,4.19-5.42,5.03c-0.08,0.03-6.22,4.22-6.22,4.22
		l-2.28-3.03l2.6-1.71c0.3-0.2,0.47-0.55,0.44-0.91c0-0.03-0.23-3.23,2.33-4.35c0.3-0.13,0.51-0.4,0.57-0.71l0.95-4.73
		c0.12-0.59,0.64-1.01,1.23-1.01c0.37,0,0.71,0.16,0.96,0.44c0.24,0.28,0.35,0.64,0.29,1.01c0,0.01,0,0.01,0,0.02l-0.47,3.48
		c-0.05,0.37,0.11,0.74,0.42,0.95c0.31,0.21,0.71,0.23,1.04,0.05l10.67-5.95h2.68C-45.98,31.8-45.88,31.88-45.84,32.03L-45.84,32.03
		z M-58.73,31.8h5.85l-5.84,3.25l0.2-1.51C-58.42,32.95-58.5,32.34-58.73,31.8z M-34.82,29.82h-39.75c-0.55,0-0.99-0.44-0.99-0.99
		c0-0.55,0.44-0.99,0.99-0.99h39.75c0.55,0,0.99,0.44,0.99,0.99C-33.83,29.38-34.27,29.82-34.82,29.82z"/>
	<path class="st0" d="M-61.5,10.12c-3.09,1.44-5.52,4.1-6.67,7.31c-0.18,0.51,0.08,1.08,0.6,1.27c0.11,0.04,0.22,0.06,0.33,0.06
		c0.41,0,0.79-0.25,0.93-0.66c0.97-2.71,3.03-4.96,5.64-6.18c0.5-0.23,0.71-0.82,0.48-1.32C-60.42,10.1-61.01,9.89-61.5,10.12z"/>
</g>
<g>
	<path class="st0" d="M24.98,27.39c-3.55,0-6.45-2.89-6.45-6.45s2.89-6.45,6.45-6.45s6.45,2.89,6.45,6.45S28.53,27.39,24.98,27.39z
		 M24.98,17.72c-1.78,0-3.22,1.45-3.22,3.22s1.45,3.22,3.22,3.22c1.78,0,3.22-1.45,3.22-3.22S26.75,17.72,24.98,17.72z"/>
	<path class="st0" d="M49.95,29.09v-6.62c1-1.02,1.61-2.41,1.61-3.94c0-1.53-0.62-2.92-1.61-3.94V4.63c0-2.55-2.08-4.63-4.63-4.63
		H4.63C2.08,0,0,2.08,0,4.63v42.3c0,2.55,2.08,4.63,4.63,4.63h40.69c2.55,0,4.63-2.08,4.63-4.63v-9.96c1-1.02,1.61-2.41,1.61-3.94
		C51.56,31.5,50.95,30.11,49.95,29.09z M48.34,18.53c0,1.33-1.08,2.42-2.42,2.42h-1.61v-4.83h1.61
		C47.26,16.11,48.34,17.2,48.34,18.53z M41.09,14.5v8.06V29v8.06v4.23c0,0.78-0.63,1.41-1.41,1.41H10.27
		c-0.78,0-1.41-0.63-1.41-1.41V10.27c0-0.78,0.63-1.41,1.41-1.41h29.41c0.78,0,1.41,0.63,1.41,1.41V14.5z M44.31,24.17h1.61
		c0.27,0,0.54-0.02,0.81-0.06v3.34c-0.26-0.04-0.53-0.06-0.81-0.06h-1.61V24.17z M44.31,30.62h1.61c1.33,0,2.42,1.08,2.42,2.42
		c0,1.33-1.08,2.42-2.42,2.42h-1.61V30.62z M45.32,48.34H4.63c-0.78,0-1.41-0.63-1.41-1.41V4.63c0-0.78,0.63-1.41,1.41-1.41h40.69
		c0.78,0,1.41,0.63,1.41,1.41v8.32c-0.26-0.04-0.53-0.06-0.81-0.06h-1.61v-2.62c0-2.55-2.08-4.63-4.63-4.63H10.27
		c-2.55,0-4.63,2.08-4.63,4.63v31.02c0,2.55,2.08,4.63,4.63,4.63h29.41c2.55,0,4.63-2.08,4.63-4.63v-2.62h1.61
		c0.27,0,0.54-0.02,0.81-0.06v8.32C46.73,47.71,46.1,48.34,45.32,48.34z"/>
	<path class="st0" d="M14.5,35.45c-0.89,0-1.61-0.72-1.61-1.61v-6.45c0-0.89,0.72-1.61,1.61-1.61c0.89,0,1.61,0.72,1.61,1.61v6.45
		C16.11,34.73,15.39,35.45,14.5,35.45z"/>
</g>
</svg>
