<?xml version="1.0" encoding="utf-8"?>
<!-- Generator: Adobe Illustrator 23.0.2, SVG Export Plug-In . SVG Version: 6.00 Build 0)  -->
<svg version="1.1" id="Capa_1" xmlns="http://www.w3.org/2000/svg" xmlns:xlink="http://www.w3.org/1999/xlink" x="0px" y="0px"
	 viewBox="0 0 45.48 49.61" style="enable-background:new 0 0 45.48 49.61;" xml:space="preserve">
<style type="text/css">
	.st0{fill:#FFFFFF;}
</style>
<g>
	<g>
		<path class="st0" d="M-250.9-23.22h-0.9v-18.91c0-4.5-3.6-8.1-8.1-8.1c-3.98,0-6.85,2.95-7.17,7.28c-2.09,0.4-3.63,2.2-3.63,4.42
			c0,0.54,0.36,0.9,0.9,0.9h7.2c0.54,0,0.9-0.36,0.9-0.9c0-2.2-1.51-3.98-3.56-4.41c0.27-2.86,1.99-5.5,5.36-5.5
			c3.51,0,6.3,2.79,6.3,6.3v18.91h-27.1c-0.41-2.08-2.2-3.6-4.41-3.6c-0.9-1.08-2.16-1.8-3.6-1.8c-1.71,0-3.24,0.99-3.96,2.43
			c-0.72-0.36-1.53-0.63-2.34-0.63c-2.21,0-4.01,1.52-4.41,3.6h-0.09c-1.53,0-2.7,1.17-2.7,2.7c0,1.53,1.17,2.7,2.7,2.7h1.08
			l2.43,9.63c0.72,2.79,3.24,4.77,6.12,4.77h0.72l-1.17,2.34c-0.27,0.45-0.09,0.99,0.36,1.17c0.09,0.09,0.27,0.09,0.36,0.09
			c0.36,0,0.63-0.18,0.81-0.45l1.58-3.15h24.98l1.53,3.06c0.18,0.36,0.45,0.54,0.81,0.54c0.18,0,0.27,0,0.36-0.18
			c0.36-0.18,0.54-0.72,0.36-1.17l-1.13-2.26c2.79-0.1,5.2-2.05,5.9-4.68l2.45-9.72h1.06c1.53,0,2.7-1.17,2.7-2.7
			C-248.2-22.05-249.37-23.22-250.9-23.22z M-263.6-39.42h-5.13c0.36-1.08,1.44-1.8,2.61-1.8C-264.95-41.22-263.96-40.5-263.6-39.42
			z M-295.02-25.02c0.81,0,1.53,0.36,2.16,0.99c0.18,0.27,0.54,0.36,0.9,0.27c0.36-0.09,0.54-0.36,0.63-0.72
			c0.27-1.35,1.35-2.34,2.7-2.34c0.99,0,1.89,0.45,2.34,1.35c0.18,0.36,0.63,0.54,0.99,0.45c0.09,0,0.18,0,0.27,0
			c1.17,0,2.16,0.72,2.52,1.8h-15.04C-297.18-24.3-296.19-25.02-295.02-25.02z M-256.03-8.63c-0.54,1.98-2.34,3.42-4.41,3.42h-29.35
			c-2.07,0-3.87-1.44-4.41-3.42l-2.34-9.18h42.67L-256.03-8.63z M-250.9-19.61h-1.8h-45.01h-1.8c-0.54,0-0.9-0.36-0.9-0.9
			c0-0.54,0.36-0.9,0.9-0.9h0.9h17.11h30.61c0.54,0,0.9,0.36,0.9,0.9C-250-19.97-250.36-19.61-250.9-19.61z"/>
		<path class="st0" d="M-269.81-33.57c0.54,0,0.9-0.36,0.9-0.9v-0.45c0-0.54-0.36-0.9-0.9-0.9c-0.54,0-0.9,0.36-0.9,0.9v0.45
			C-270.71-33.93-270.35-33.57-269.81-33.57z"/>
		<path class="st0" d="M-269.81-29.43c0.54,0,0.9-0.45,0.9-0.9v-0.99c0-0.54-0.36-0.9-0.9-0.9c-0.54,0-0.9,0.36-0.9,0.9v0.99
			C-270.71-29.79-270.35-29.43-269.81-29.43z"/>
		<path class="st0" d="M-269.81-25.92c0.54,0,0.9-0.36,0.9-0.9v-0.45c0-0.54-0.36-0.9-0.9-0.9c-0.54,0-0.9,0.36-0.9,0.9v0.45
			C-270.71-26.28-270.35-25.92-269.81-25.92z"/>
		<path class="st0" d="M-266.21-33.57c0.54,0,0.9-0.36,0.9-0.9v-0.45c0-0.54-0.36-0.9-0.9-0.9c-0.54,0-0.9,0.36-0.9,0.9v0.45
			C-267.11-33.93-266.75-33.57-266.21-33.57z"/>
		<path class="st0" d="M-267.11-30.33c0,0.54,0.36,0.9,0.9,0.9c0.54,0,0.9-0.45,0.9-0.9v-0.99c0-0.54-0.36-0.9-0.9-0.9
			c-0.54,0-0.9,0.36-0.9,0.9V-30.33z"/>
		<path class="st0" d="M-267.11-26.82c0,0.54,0.36,0.9,0.9,0.9c0.54,0,0.9-0.36,0.9-0.9v-0.45c0-0.54-0.36-0.9-0.9-0.9
			c-0.54,0-0.9,0.36-0.9,0.9V-26.82z"/>
		<path class="st0" d="M-262.61-33.57c0.54,0,0.9-0.36,0.9-0.9v-0.45c0-0.54-0.36-0.9-0.9-0.9c-0.54,0-0.9,0.36-0.9,0.9v0.45
			C-263.51-33.93-263.15-33.57-262.61-33.57z"/>
		<path class="st0" d="M-263.51-30.33c0,0.54,0.36,0.9,0.9,0.9s0.9-0.45,0.9-0.9v-0.99c0-0.54-0.36-0.9-0.9-0.9
			c-0.54,0-0.9,0.36-0.9,0.9L-263.51-30.33L-263.51-30.33z"/>
		<path class="st0" d="M-263.51-26.82c0,0.54,0.36,0.9,0.9,0.9s0.9-0.36,0.9-0.9v-0.45c0-0.54-0.36-0.9-0.9-0.9s-0.9,0.36-0.9,0.9
			V-26.82z"/>
	</g>
</g>
<g>
	<g>
		<g>
			<path class="st0" d="M-172.75-85.04c-3.19,0-5.78,2.58-5.78,5.76c0,3.17,2.59,5.76,5.78,5.76c3.19,0,5.78-2.58,5.78-5.76
				C-166.97-82.45-169.56-85.04-172.75-85.04z"/>
		</g>
	</g>
	<g>
		<g>
			<path class="st0" d="M-158.66-92.88c-3.76-3.76-8.77-5.83-14.09-5.83c-5.31,0-10.3,2.06-14.06,5.79
				c-1.52,1.51-1.52,3.97-0.01,5.49c0.74,0.74,1.72,1.14,2.76,1.14c1.04,0,2.01-0.4,2.75-1.13c2.29-2.27,5.33-3.53,8.56-3.53
				c3.24,0,6.29,1.26,8.58,3.55c0.74,0.73,1.72,1.14,2.76,1.14c1.04,0,2.01-0.4,2.75-1.13C-157.14-88.9-157.14-91.36-158.66-92.88z"
				/>
		</g>
	</g>
	<g>
		<g>
			<path class="st0" d="M-140.55-110.92c-8.6-8.58-20.03-13.3-32.2-13.3c-12.15,0-23.57,4.71-32.17,13.27
				c-1.52,1.51-1.52,3.97,0,5.49c0.74,0.73,1.71,1.14,2.75,1.14c1.04,0,2.02-0.4,2.75-1.13c7.13-7.09,16.59-11,26.66-11
				c10.08,0,19.56,3.91,26.69,11.03c0.74,0.73,1.72,1.14,2.76,1.14c1.04,0,2.02-0.4,2.75-1.14
				C-139.03-106.95-139.03-109.41-140.55-110.92z"/>
		</g>
	</g>
	<g>
		<g>
			<path class="st0" d="M-149.83-101.68c-6.12-6.11-14.26-9.47-22.92-9.47c-8.64,0-16.77,3.35-22.88,9.44
				c-0.74,0.73-1.14,1.71-1.14,2.74c0,1.04,0.4,2.01,1.14,2.74c0.74,0.73,1.71,1.14,2.75,1.14c1.04,0,2.02-0.4,2.75-1.13
				c4.65-4.62,10.82-7.17,17.38-7.17c6.58,0,12.76,2.56,17.41,7.19c0.74,0.73,1.71,1.14,2.76,1.14c1.04,0,2.02-0.4,2.75-1.14
				c0.74-0.73,1.14-1.71,1.14-2.74C-148.69-99.97-149.1-100.94-149.83-101.68z"/>
		</g>
	</g>
</g>
<g>
	<g>
		<g>
			<path class="st0" d="M15.49,6.9c-0.85-1.72-1.52-3.07-0.04-5.29c0.32-0.48,0.19-1.12-0.29-1.43c-0.47-0.31-1.11-0.19-1.43,0.29
				c-2.14,3.21-1,5.51-0.09,7.35c0.85,1.73,1.47,2.98,0.09,5.05c-0.32,0.48-0.19,1.12,0.29,1.43c0.18,0.12,0.38,0.17,0.57,0.17
				c0.33,0,0.66-0.16,0.86-0.46C17.49,10.94,16.38,8.7,15.49,6.9z"/>
		</g>
	</g>
	<g>
		<g>
			<path class="st0" d="M23.72,6.9c-0.85-1.72-1.52-3.07-0.04-5.29c0.32-0.48,0.19-1.12-0.29-1.43c-0.47-0.31-1.12-0.19-1.43,0.29
				c-2.14,3.21-1,5.51-0.09,7.35c0.85,1.73,1.47,2.98,0.09,5.05c-0.32,0.48-0.19,1.12,0.29,1.43c0.18,0.12,0.37,0.17,0.57,0.17
				c0.33,0,0.66-0.16,0.86-0.46C25.73,10.94,24.62,8.7,23.72,6.9z"/>
		</g>
	</g>
	<g>
		<g>
			<path class="st0" d="M31.96,6.9c-0.85-1.72-1.52-3.07-0.04-5.29c0.32-0.48,0.19-1.12-0.29-1.43c-0.47-0.31-1.12-0.19-1.43,0.29
				c-2.14,3.21-1,5.51-0.09,7.35c0.85,1.73,1.47,2.98,0.09,5.05c-0.32,0.48-0.19,1.12,0.29,1.43c0.18,0.12,0.37,0.17,0.57,0.17
				c0.33,0,0.66-0.16,0.86-0.46C33.96,10.94,32.85,8.7,31.96,6.9z"/>
		</g>
	</g>
	<g>
		<g>
			<path class="st0" d="M40.31,16.54H5.17C2.32,16.54,0,18.86,0,21.7v18.6c0,2.85,2.32,5.17,5.17,5.17h35.14
				c2.85,0,5.17-2.32,5.17-5.17V21.7C45.48,18.86,43.16,16.54,40.31,16.54z M43.41,40.31c0,1.71-1.39,3.1-3.1,3.1H5.17
				c-1.71,0-3.1-1.39-3.1-3.1V21.7c0-1.71,1.39-3.1,3.1-3.1h35.14c1.71,0,3.1,1.39,3.1,3.1V40.31z"/>
		</g>
	</g>
	<g>
		<g>
			<path class="st0" d="M7.23,20.67c-0.57,0-1.03,0.46-1.03,1.03v18.6c0,0.57,0.46,1.03,1.03,1.03s1.03-0.46,1.03-1.03V21.7
				C8.27,21.13,7.81,20.67,7.23,20.67z"/>
		</g>
	</g>
	<g>
		<g>
			<path class="st0" d="M13.44,20.67c-0.57,0-1.03,0.46-1.03,1.03v18.6c0,0.57,0.46,1.03,1.03,1.03c0.57,0,1.03-0.46,1.03-1.03V21.7
				C14.47,21.13,14.01,20.67,13.44,20.67z"/>
		</g>
	</g>
	<g>
		<g>
			<path class="st0" d="M19.64,20.67c-0.57,0-1.03,0.46-1.03,1.03v18.6c0,0.57,0.46,1.03,1.03,1.03c0.57,0,1.03-0.46,1.03-1.03V21.7
				C20.67,21.13,20.21,20.67,19.64,20.67z"/>
		</g>
	</g>
	<g>
		<g>
			<path class="st0" d="M25.84,20.67c-0.57,0-1.03,0.46-1.03,1.03v18.6c0,0.57,0.46,1.03,1.03,1.03s1.03-0.46,1.03-1.03V21.7
				C26.87,21.13,26.41,20.67,25.84,20.67z"/>
		</g>
	</g>
	<g>
		<g>
			<path class="st0" d="M32.04,20.67c-0.57,0-1.03,0.46-1.03,1.03v18.6c0,0.57,0.46,1.03,1.03,1.03c0.57,0,1.03-0.46,1.03-1.03V21.7
				C33.07,21.13,32.61,20.67,32.04,20.67z"/>
		</g>
	</g>
	<g>
		<g>
			<path class="st0" d="M38.24,20.67c-0.57,0-1.03,0.46-1.03,1.03v18.6c0,0.57,0.46,1.03,1.03,1.03c0.57,0,1.03-0.46,1.03-1.03V21.7
				C39.28,21.13,38.81,20.67,38.24,20.67z"/>
		</g>
	</g>
	<g>
		<g>
			<path class="st0" d="M9.3,43.41c-0.57,0-1.03,0.46-1.03,1.03v4.13c0,0.57,0.46,1.03,1.03,1.03s1.03-0.46,1.03-1.03v-4.13
				C10.34,43.87,9.87,43.41,9.3,43.41z"/>
		</g>
	</g>
	<g>
		<g>
			<path class="st0" d="M36.18,43.41c-0.57,0-1.03,0.46-1.03,1.03v4.13c0,0.57,0.46,1.03,1.03,1.03c0.57,0,1.03-0.46,1.03-1.03
				v-4.13C37.21,43.87,36.75,43.41,36.18,43.41z"/>
		</g>
	</g>
</g>
<g>
	<circle class="st0" cx="109.53" cy="22.53" r="0.99"/>
	<path class="st0" d="M123.09,25.63h-0.19v-2.22c0-9.93-7.39-18.16-16.96-19.49c0.16-0.36,0.24-0.76,0.24-1.18
		c0-1.64-1.33-2.97-2.97-2.97s-2.97,1.33-2.97,2.97c0,0.42,0.09,0.82,0.24,1.18c-9.57,1.33-16.96,9.56-16.96,19.49v2.22h-0.19
		c-1.64,0-2.97,1.33-2.97,2.97c0,1.64,1.33,2.97,2.97,2.97h9.87c-0.08,0.2-0.15,0.41-0.19,0.62l-0.85,4.25
		c-2.6,1.43-3,4.24-3.04,5.48l-3.03,1.99c-0.47,0.31-0.59,0.97-0.25,1.42l3.48,4.63c0.31,0.42,0.92,0.52,1.35,0.22l6.65-4.56
		c3.65-1.29,5.35-3.84,6.31-5.75c1.08-0.74,6-4.09,9.29-6.04c0.81-0.48,1.23-1.37,1.1-2.28h9.05c1.64,0,2.97-1.33,2.97-2.97
		S124.73,25.63,123.09,25.63L123.09,25.63z M102.22,2.75c0-0.55,0.44-0.99,0.99-0.99c0.55,0,0.99,0.44,0.99,0.99
		s-0.44,0.99-0.99,0.99S102.22,3.29,102.22,2.75L102.22,2.75z M85.51,23.42c0-9.76,7.94-17.7,17.7-17.7
		c9.17,0,16.74,7.01,17.61,15.96h-6.82c-0.55,0-0.99,0.44-0.99,0.99c0,0.55,0.44,0.99,0.99,0.99h6.91v1.98h-35.4V23.42z
		 M112.07,31.8c0.04,0.15-0.01,0.27-0.14,0.35c-3.75,2.22-9.56,6.22-9.61,6.26c-0.14,0.1-0.25,0.23-0.33,0.38
		c-1.28,2.63-2.95,4.19-5.42,5.03c-0.08,0.03-6.22,4.22-6.22,4.22L88.07,45l2.6-1.71c0.3-0.2,0.47-0.55,0.44-0.91
		c0-0.03-0.23-3.23,2.33-4.35c0.3-0.13,0.51-0.4,0.57-0.71l0.95-4.73c0.12-0.59,0.64-1.01,1.23-1.01c0.37,0,0.71,0.16,0.96,0.44
		c0.24,0.28,0.35,0.64,0.29,1.01c0,0.01,0,0.01,0,0.02l-0.47,3.48c-0.05,0.37,0.11,0.74,0.42,0.95c0.31,0.21,0.71,0.23,1.04,0.05
		l10.67-5.95h2.68C111.93,31.58,112.03,31.65,112.07,31.8L112.07,31.8z M99.18,31.58h5.85l-5.84,3.25l0.2-1.51
		C99.49,32.72,99.41,32.12,99.18,31.58z M123.09,29.6H83.34c-0.55,0-0.99-0.44-0.99-0.99c0-0.55,0.44-0.99,0.99-0.99h39.75
		c0.55,0,0.99,0.44,0.99,0.99C124.08,29.15,123.63,29.6,123.09,29.6z"/>
	<path class="st0" d="M96.4,9.89c-3.09,1.44-5.52,4.1-6.67,7.31c-0.18,0.51,0.08,1.08,0.6,1.27c0.11,0.04,0.22,0.06,0.33,0.06
		c0.41,0,0.79-0.25,0.93-0.66c0.97-2.71,3.03-4.96,5.64-6.18c0.5-0.23,0.71-0.82,0.48-1.32C97.49,9.88,96.9,9.66,96.4,9.89z"/>
</g>
<g>
	<path class="st0" d="M182.88,27.17c-3.55,0-6.45-2.89-6.45-6.45s2.89-6.45,6.45-6.45s6.45,2.89,6.45,6.45
		S186.44,27.17,182.88,27.17z M182.88,17.5c-1.78,0-3.22,1.45-3.22,3.22s1.45,3.22,3.22,3.22s3.22-1.45,3.22-3.22
		S184.66,17.5,182.88,17.5z"/>
	<path class="st0" d="M207.86,28.87v-6.62c1-1.02,1.61-2.41,1.61-3.94c0-1.53-0.62-2.92-1.61-3.94V4.41c0-2.55-2.08-4.63-4.63-4.63
		h-40.69c-2.55,0-4.63,2.08-4.63,4.63v42.3c0,2.55,2.08,4.63,4.63,4.63h40.69c2.55,0,4.63-2.08,4.63-4.63v-9.96
		c1-1.02,1.61-2.41,1.61-3.94C209.47,31.27,208.85,29.88,207.86,28.87z M206.25,18.31c0,1.33-1.08,2.42-2.42,2.42h-1.61v-4.83h1.61
		C205.16,15.89,206.25,16.97,206.25,18.31z M199,14.28v8.06v6.45v8.06v4.23c0,0.78-0.63,1.41-1.41,1.41h-29.41
		c-0.78,0-1.41-0.63-1.41-1.41V10.05c0-0.78,0.63-1.41,1.41-1.41h29.41c0.78,0,1.41,0.63,1.41,1.41V14.28z M202.22,23.95h1.61
		c0.27,0,0.54-0.02,0.81-0.06v3.34c-0.26-0.04-0.53-0.06-0.81-0.06h-1.61V23.95z M202.22,30.39h1.61c1.33,0,2.42,1.08,2.42,2.42
		s-1.08,2.42-2.42,2.42h-1.61V30.39z M203.22,48.12h-40.69c-0.78,0-1.41-0.63-1.41-1.41V4.41c0-0.78,0.63-1.41,1.41-1.41h40.69
		c0.78,0,1.41,0.63,1.41,1.41v8.32c-0.26-0.04-0.53-0.06-0.81-0.06h-1.61v-2.62c0-2.55-2.08-4.63-4.63-4.63h-29.41
		c-2.55,0-4.63,2.08-4.63,4.63v31.02c0,2.55,2.08,4.63,4.63,4.63h29.41c2.55,0,4.63-2.08,4.63-4.63v-2.62h1.61
		c0.27,0,0.54-0.02,0.81-0.06v8.32C204.63,47.48,204,48.12,203.22,48.12z"/>
	<path class="st0" d="M172.41,35.22c-0.89,0-1.61-0.72-1.61-1.61v-6.45c0-0.89,0.72-1.61,1.61-1.61c0.89,0,1.61,0.72,1.61,1.61v6.45
		C174.02,34.5,173.3,35.22,172.41,35.22z"/>
</g>
</svg>
