<?xml version="1.0" encoding="utf-8"?>
<!-- Generator: Adobe Illustrator 23.0.2, SVG Export Plug-In . SVG Version: 6.00 Build 0)  -->
<svg version="1.1" id="Capa_1" xmlns="http://www.w3.org/2000/svg" xmlns:xlink="http://www.w3.org/1999/xlink" x="0px" y="0px"
	 viewBox="0 0 54.02 50.42" style="enable-background:new 0 0 54.02 50.42;" xml:space="preserve">
<style type="text/css">
	.st0{fill:#FFFFFF;}
</style>
<g>
	<g>
		<path class="st0" d="M51.32,27.01h-0.9V8.1c0-4.5-3.6-8.1-8.1-8.1c-3.98,0-6.85,2.95-7.17,7.28c-2.09,0.4-3.63,2.2-3.63,4.42
			c0,0.54,0.36,0.9,0.9,0.9h7.2c0.54,0,0.9-0.36,0.9-0.9c0-2.2-1.51-3.98-3.56-4.41c0.27-2.86,1.99-5.5,5.36-5.5
			c3.51,0,6.3,2.79,6.3,6.3v18.91h-27.1c-0.41-2.08-2.2-3.6-4.41-3.6c-0.9-1.08-2.16-1.8-3.6-1.8c-1.71,0-3.24,0.99-3.96,2.43
			c-0.72-0.36-1.53-0.63-2.34-0.63c-2.21,0-4.01,1.52-4.41,3.6H2.7c-1.53,0-2.7,1.17-2.7,2.7c0,1.53,1.17,2.7,2.7,2.7h1.08
			l2.43,9.63c0.72,2.79,3.24,4.77,6.12,4.77h0.72l-1.17,2.34c-0.27,0.45-0.09,0.99,0.36,1.17c0.09,0.09,0.27,0.09,0.36,0.09
			c0.36,0,0.63-0.18,0.81-0.45l1.58-3.15h24.98l1.53,3.06c0.18,0.36,0.45,0.54,0.81,0.54c0.18,0,0.27,0,0.36-0.18
			c0.36-0.18,0.54-0.72,0.36-1.17l-1.13-2.26c2.79-0.1,5.2-2.05,5.9-4.68l2.45-9.72h1.06c1.53,0,2.7-1.17,2.7-2.7
			C54.02,28.18,52.85,27.01,51.32,27.01z M38.62,10.8h-5.13C33.85,9.72,34.93,9,36.1,9C37.27,9,38.26,9.72,38.62,10.8z M7.2,25.21
			c0.81,0,1.53,0.36,2.16,0.99c0.18,0.27,0.54,0.36,0.9,0.27s0.54-0.36,0.63-0.72c0.27-1.35,1.35-2.34,2.7-2.34
			c0.99,0,1.89,0.45,2.34,1.35c0.18,0.36,0.63,0.54,0.99,0.45c0.09,0,0.18,0,0.27,0c1.17,0,2.16,0.72,2.52,1.8H4.68
			C5.04,25.93,6.03,25.21,7.2,25.21z M46.19,41.59c-0.54,1.98-2.34,3.42-4.41,3.42H12.42c-2.07,0-3.87-1.44-4.41-3.42l-2.34-9.18
			h42.67L46.19,41.59z M51.32,30.61h-1.8H4.5H2.7c-0.54,0-0.9-0.36-0.9-0.9c0-0.54,0.36-0.9,0.9-0.9h0.9h17.11h30.61
			c0.54,0,0.9,0.36,0.9,0.9C52.22,30.25,51.86,30.61,51.32,30.61z"/>
		<path class="st0" d="M32.41,16.66c0.54,0,0.9-0.36,0.9-0.9v-0.45c0-0.54-0.36-0.9-0.9-0.9c-0.54,0-0.9,0.36-0.9,0.9v0.45
			C31.51,16.3,31.87,16.66,32.41,16.66z"/>
		<path class="st0" d="M32.41,20.8c0.54,0,0.9-0.45,0.9-0.9v-0.99c0-0.54-0.36-0.9-0.9-0.9c-0.54,0-0.9,0.36-0.9,0.9v0.99
			C31.51,20.44,31.87,20.8,32.41,20.8z"/>
		<path class="st0" d="M32.41,24.31c0.54,0,0.9-0.36,0.9-0.9v-0.45c0-0.54-0.36-0.9-0.9-0.9c-0.54,0-0.9,0.36-0.9,0.9v0.45
			C31.51,23.95,31.87,24.31,32.41,24.31z"/>
		<path class="st0" d="M36.01,16.66c0.54,0,0.9-0.36,0.9-0.9v-0.45c0-0.54-0.36-0.9-0.9-0.9c-0.54,0-0.9,0.36-0.9,0.9v0.45
			C35.11,16.3,35.47,16.66,36.01,16.66z"/>
		<path class="st0" d="M35.11,19.9c0,0.54,0.36,0.9,0.9,0.9c0.54,0,0.9-0.45,0.9-0.9v-0.99c0-0.54-0.36-0.9-0.9-0.9
			c-0.54,0-0.9,0.36-0.9,0.9V19.9z"/>
		<path class="st0" d="M35.11,23.41c0,0.54,0.36,0.9,0.9,0.9c0.54,0,0.9-0.36,0.9-0.9v-0.45c0-0.54-0.36-0.9-0.9-0.9
			c-0.54,0-0.9,0.36-0.9,0.9V23.41z"/>
		<path class="st0" d="M39.61,16.66c0.54,0,0.9-0.36,0.9-0.9v-0.45c0-0.54-0.36-0.9-0.9-0.9c-0.54,0-0.9,0.36-0.9,0.9v0.45
			C38.71,16.3,39.07,16.66,39.61,16.66z"/>
		<path class="st0" d="M38.71,19.9c0,0.54,0.36,0.9,0.9,0.9c0.54,0,0.9-0.45,0.9-0.9v-0.99c0-0.54-0.36-0.9-0.9-0.9
			c-0.54,0-0.9,0.36-0.9,0.9L38.71,19.9L38.71,19.9z"/>
		<path class="st0" d="M38.71,23.41c0,0.54,0.36,0.9,0.9,0.9c0.54,0,0.9-0.36,0.9-0.9v-0.45c0-0.54-0.36-0.9-0.9-0.9
			c-0.54,0-0.9,0.36-0.9,0.9V23.41z"/>
	</g>
</g>
<g>
	<g>
		<g>
			<path class="st0" d="M-68.53,278.19c-3.19,0-5.78,2.58-5.78,5.76c0,3.17,2.59,5.76,5.78,5.76c3.19,0,5.78-2.58,5.78-5.76
				C-62.75,280.77-65.35,278.19-68.53,278.19z"/>
		</g>
	</g>
	<g>
		<g>
			<path class="st0" d="M-54.44,270.35c-3.76-3.76-8.77-5.83-14.09-5.83c-5.31,0-10.3,2.06-14.06,5.79
				c-1.52,1.51-1.52,3.97-0.01,5.49c0.74,0.74,1.72,1.14,2.76,1.14c1.04,0,2.01-0.4,2.75-1.13c2.29-2.27,5.33-3.53,8.56-3.53
				c3.24,0,6.29,1.26,8.58,3.55c0.74,0.73,1.72,1.14,2.76,1.14c1.04,0,2.01-0.4,2.75-1.13C-52.92,274.32-52.92,271.86-54.44,270.35z
				"/>
		</g>
	</g>
	<g>
		<g>
			<path class="st0" d="M-36.33,252.3c-8.6-8.58-20.03-13.3-32.2-13.3c-12.15,0-23.57,4.71-32.17,13.27c-1.52,1.51-1.52,3.97,0,5.49
				c0.74,0.73,1.71,1.14,2.75,1.14c1.04,0,2.02-0.4,2.75-1.13c7.13-7.09,16.59-11,26.66-11c10.08,0,19.56,3.91,26.69,11.03
				c0.74,0.73,1.72,1.14,2.76,1.14c1.04,0,2.02-0.4,2.75-1.14C-34.81,256.28-34.81,253.81-36.33,252.3z"/>
		</g>
	</g>
	<g>
		<g>
			<path class="st0" d="M-45.61,261.55c-6.12-6.11-14.26-9.47-22.92-9.47c-8.64,0-16.77,3.35-22.88,9.44
				c-0.74,0.73-1.14,1.71-1.14,2.74c0,1.04,0.4,2.01,1.14,2.74c0.74,0.73,1.71,1.14,2.75,1.14c1.04,0,2.02-0.4,2.75-1.13
				c4.65-4.62,10.82-7.17,17.38-7.17c6.58,0,12.76,2.56,17.41,7.19c0.74,0.73,1.71,1.14,2.76,1.14c1.04,0,2.02-0.4,2.75-1.14
				c0.74-0.73,1.14-1.71,1.14-2.74C-44.47,263.26-44.88,262.28-45.61,261.55z"/>
		</g>
	</g>
</g>
<g>
	<g>
		<g>
			<path class="st0" d="M4.71,246.12c-0.85-1.72-1.52-3.07-0.04-5.29c0.32-0.48,0.19-1.12-0.29-1.43c-0.47-0.31-1.11-0.19-1.43,0.29
				c-2.14,3.21-1,5.51-0.09,7.35c0.85,1.73,1.47,2.98,0.09,5.05c-0.32,0.48-0.19,1.12,0.29,1.43c0.18,0.12,0.38,0.17,0.57,0.17
				c0.33,0,0.66-0.16,0.86-0.46C6.71,250.17,5.6,247.92,4.71,246.12z"/>
		</g>
	</g>
	<g>
		<g>
			<path class="st0" d="M12.94,246.12c-0.85-1.72-1.52-3.07-0.04-5.29c0.32-0.48,0.19-1.12-0.29-1.43
				c-0.47-0.31-1.12-0.19-1.43,0.29c-2.14,3.21-1,5.51-0.09,7.35c0.85,1.73,1.47,2.98,0.09,5.05c-0.32,0.48-0.19,1.12,0.29,1.43
				c0.18,0.12,0.37,0.17,0.57,0.17c0.33,0,0.66-0.16,0.86-0.46C14.94,250.17,13.84,247.92,12.94,246.12z"/>
		</g>
	</g>
	<g>
		<g>
			<path class="st0" d="M21.18,246.12c-0.85-1.72-1.52-3.07-0.04-5.29c0.32-0.48,0.19-1.12-0.29-1.43
				c-0.47-0.31-1.12-0.19-1.43,0.29c-2.14,3.21-1,5.51-0.09,7.35c0.85,1.73,1.47,2.98,0.09,5.05c-0.32,0.48-0.19,1.12,0.29,1.43
				c0.18,0.12,0.37,0.17,0.57,0.17c0.33,0,0.66-0.16,0.86-0.46C23.18,250.17,22.07,247.92,21.18,246.12z"/>
		</g>
	</g>
	<g>
		<g>
			<path class="st0" d="M29.53,255.76H-5.61c-2.85,0-5.17,2.32-5.17,5.17v18.6c0,2.85,2.32,5.17,5.17,5.17h35.14
				c2.85,0,5.17-2.32,5.17-5.17v-18.6C34.7,258.08,32.38,255.76,29.53,255.76z M32.63,279.53c0,1.71-1.39,3.1-3.1,3.1H-5.61
				c-1.71,0-3.1-1.39-3.1-3.1v-18.6c0-1.71,1.39-3.1,3.1-3.1h35.14c1.71,0,3.1,1.39,3.1,3.1V279.53z"/>
		</g>
	</g>
	<g>
		<g>
			<path class="st0" d="M-3.55,259.9c-0.57,0-1.03,0.46-1.03,1.03v18.6c0,0.57,0.46,1.03,1.03,1.03s1.03-0.46,1.03-1.03v-18.6
				C-2.51,260.36-2.98,259.9-3.55,259.9z"/>
		</g>
	</g>
	<g>
		<g>
			<path class="st0" d="M2.66,259.9c-0.57,0-1.03,0.46-1.03,1.03v18.6c0,0.57,0.46,1.03,1.03,1.03s1.03-0.46,1.03-1.03v-18.6
				C3.69,260.36,3.23,259.9,2.66,259.9z"/>
		</g>
	</g>
	<g>
		<g>
			<path class="st0" d="M8.86,259.9c-0.57,0-1.03,0.46-1.03,1.03v18.6c0,0.57,0.46,1.03,1.03,1.03c0.57,0,1.03-0.46,1.03-1.03v-18.6
				C9.89,260.36,9.43,259.9,8.86,259.9z"/>
		</g>
	</g>
	<g>
		<g>
			<path class="st0" d="M15.06,259.9c-0.57,0-1.03,0.46-1.03,1.03v18.6c0,0.57,0.46,1.03,1.03,1.03s1.03-0.46,1.03-1.03v-18.6
				C16.09,260.36,15.63,259.9,15.06,259.9z"/>
		</g>
	</g>
	<g>
		<g>
			<path class="st0" d="M21.26,259.9c-0.57,0-1.03,0.46-1.03,1.03v18.6c0,0.57,0.46,1.03,1.03,1.03s1.03-0.46,1.03-1.03v-18.6
				C22.29,260.36,21.83,259.9,21.26,259.9z"/>
		</g>
	</g>
	<g>
		<g>
			<path class="st0" d="M27.46,259.9c-0.57,0-1.03,0.46-1.03,1.03v18.6c0,0.57,0.46,1.03,1.03,1.03s1.03-0.46,1.03-1.03v-18.6
				C28.49,260.36,28.03,259.9,27.46,259.9z"/>
		</g>
	</g>
	<g>
		<g>
			<path class="st0" d="M-1.48,282.63c-0.57,0-1.03,0.46-1.03,1.03v4.13c0,0.57,0.46,1.03,1.03,1.03s1.03-0.46,1.03-1.03v-4.13
				C-0.45,283.1-0.91,282.63-1.48,282.63z"/>
		</g>
	</g>
	<g>
		<g>
			<path class="st0" d="M25.39,282.63c-0.57,0-1.03,0.46-1.03,1.03v4.13c0,0.57,0.46,1.03,1.03,1.03s1.03-0.46,1.03-1.03v-4.13
				C26.43,283.1,25.96,282.63,25.39,282.63z"/>
		</g>
	</g>
</g>
<g>
	<circle class="st0" cx="98.75" cy="261.76" r="0.99"/>
	<path class="st0" d="M112.31,264.86h-0.19v-2.22c0-9.93-7.39-18.16-16.96-19.49c0.16-0.36,0.24-0.76,0.24-1.18
		c0-1.64-1.33-2.97-2.97-2.97s-2.97,1.33-2.97,2.97c0,0.42,0.09,0.82,0.24,1.18c-9.57,1.33-16.96,9.56-16.96,19.49v2.22h-0.19
		c-1.64,0-2.97,1.33-2.97,2.97s1.33,2.97,2.97,2.97h9.87c-0.08,0.2-0.15,0.41-0.19,0.62l-0.85,4.25c-2.6,1.43-3,4.24-3.04,5.48
		l-3.03,1.99c-0.47,0.31-0.59,0.97-0.25,1.42l3.48,4.63c0.31,0.42,0.92,0.52,1.35,0.22l6.65-4.56c3.65-1.29,5.35-3.84,6.31-5.75
		c1.08-0.74,6-4.09,9.29-6.04c0.81-0.48,1.23-1.37,1.1-2.28h9.05c1.64,0,2.97-1.33,2.97-2.97S113.94,264.86,112.31,264.86
		L112.31,264.86z M91.44,241.97c0-0.55,0.44-0.99,0.99-0.99c0.55,0,0.99,0.44,0.99,0.99c0,0.55-0.44,0.99-0.99,0.99
		C91.89,242.96,91.44,242.52,91.44,241.97L91.44,241.97z M74.73,262.64c0-9.76,7.94-17.7,17.7-17.7c9.17,0,16.74,7.01,17.61,15.96
		h-6.82c-0.55,0-0.99,0.44-0.99,0.99s0.44,0.99,0.99,0.99h6.91v1.98h-35.4V262.64z M101.29,271.03c0.04,0.15-0.01,0.27-0.14,0.35
		c-3.75,2.22-9.56,6.22-9.61,6.26c-0.14,0.1-0.25,0.23-0.33,0.38c-1.28,2.63-2.95,4.19-5.42,5.03c-0.08,0.03-6.22,4.22-6.22,4.22
		l-2.28-3.03l2.6-1.71c0.3-0.2,0.47-0.55,0.44-0.91c0-0.03-0.23-3.23,2.33-4.35c0.3-0.13,0.51-0.4,0.57-0.71l0.95-4.73
		c0.12-0.59,0.64-1.01,1.23-1.01c0.37,0,0.71,0.16,0.96,0.44c0.24,0.28,0.35,0.64,0.29,1.01c0,0.01,0,0.01,0,0.02l-0.47,3.48
		c-0.05,0.37,0.11,0.74,0.42,0.95s0.71,0.23,1.04,0.05l10.67-5.95h2.68C101.15,270.8,101.25,270.88,101.29,271.03L101.29,271.03z
		 M88.4,270.8h5.85l-5.84,3.25l0.2-1.51C88.71,271.95,88.63,271.34,88.4,270.8z M112.31,268.82H72.56c-0.55,0-0.99-0.44-0.99-0.99
		s0.44-0.99,0.99-0.99h39.75c0.55,0,0.99,0.44,0.99,0.99S112.85,268.82,112.31,268.82z"/>
	<path class="st0" d="M85.62,249.12c-3.09,1.44-5.52,4.1-6.67,7.31c-0.18,0.51,0.08,1.08,0.6,1.27c0.11,0.04,0.22,0.06,0.33,0.06
		c0.41,0,0.79-0.25,0.93-0.66c0.97-2.71,3.03-4.96,5.64-6.18c0.5-0.23,0.71-0.82,0.48-1.32C86.71,249.1,86.12,248.89,85.62,249.12z"
		/>
</g>
<g>
	<path class="st0" d="M172.1,266.39c-3.55,0-6.45-2.89-6.45-6.45c0-3.55,2.89-6.45,6.45-6.45c3.55,0,6.45,2.89,6.45,6.45
		C178.55,263.5,175.65,266.39,172.1,266.39z M172.1,256.72c-1.78,0-3.22,1.45-3.22,3.22c0,1.78,1.45,3.22,3.22,3.22
		c1.78,0,3.22-1.45,3.22-3.22C175.32,258.17,173.88,256.72,172.1,256.72z"/>
	<path class="st0" d="M197.08,268.09v-6.62c1-1.02,1.61-2.41,1.61-3.94c0-1.53-0.62-2.92-1.61-3.94v-9.96
		c0-2.55-2.08-4.63-4.63-4.63h-40.69c-2.55,0-4.63,2.08-4.63,4.63v42.3c0,2.55,2.08,4.63,4.63,4.63h40.69
		c2.55,0,4.63-2.08,4.63-4.63v-9.96c1-1.02,1.61-2.41,1.61-3.94S198.07,269.11,197.08,268.09z M195.47,257.53
		c0,1.33-1.08,2.42-2.42,2.42h-1.61v-4.83h1.61C194.38,255.11,195.47,256.2,195.47,257.53z M188.21,253.5v8.06V268v8.06v4.23
		c0,0.78-0.63,1.41-1.41,1.41H157.4c-0.78,0-1.41-0.63-1.41-1.41v-31.02c0-0.78,0.63-1.41,1.41-1.41h29.41
		c0.78,0,1.41,0.63,1.41,1.41V253.5z M191.44,263.17h1.61c0.27,0,0.54-0.02,0.81-0.06v3.34c-0.26-0.04-0.53-0.06-0.81-0.06h-1.61
		V263.17z M191.44,269.62h1.61c1.33,0,2.42,1.08,2.42,2.42s-1.08,2.42-2.42,2.42h-1.61V269.62z M192.44,287.34h-40.69
		c-0.78,0-1.41-0.63-1.41-1.41v-42.3c0-0.78,0.63-1.41,1.41-1.41h40.69c0.78,0,1.41,0.63,1.41,1.41v8.32
		c-0.26-0.04-0.53-0.06-0.81-0.06h-1.61v-2.62c0-2.55-2.08-4.63-4.63-4.63H157.4c-2.55,0-4.63,2.08-4.63,4.63v31.02
		c0,2.55,2.08,4.63,4.63,4.63h29.41c2.55,0,4.63-2.08,4.63-4.63v-2.62h1.61c0.27,0,0.54-0.02,0.81-0.06v8.32
		C193.85,286.71,193.22,287.34,192.44,287.34z"/>
	<path class="st0" d="M161.63,274.45c-0.89,0-1.61-0.72-1.61-1.61v-6.45c0-0.89,0.72-1.61,1.61-1.61s1.61,0.72,1.61,1.61v6.45
		C163.24,273.73,162.52,274.45,161.63,274.45z"/>
</g>
</svg>
