<?xml version="1.0" encoding="utf-8"?>
<!-- Generator: Adobe Illustrator 23.0.2, SVG Export Plug-In . SVG Version: 6.00 Build 0)  -->
<svg version="1.1" id="Capa_1" xmlns="http://www.w3.org/2000/svg" xmlns:xlink="http://www.w3.org/1999/xlink" x="0px" y="0px"
	 viewBox="0 0 80 80" style="enable-background:new 0 0 80 80;" xml:space="preserve">
<style type="text/css">
	.st0{fill:#FFFFFF;}
</style>
<g>
	<g>
		<g>
			<path class="st0" d="M78,40C78,19.05,60.95,2,40,2S2,19.05,2,40s17.05,38,38,38S78,60.95,78,40z M7.89,40
				C7.89,22.3,22.29,7.89,40,7.89S72.11,22.3,72.11,40c0,17.71-14.41,32.11-32.11,32.11S7.89,57.7,7.89,40z"/>
		</g>
	</g>
	<g>
		<g>
			<path class="st0" d="M35.94,56.81l14.72-14.72c1.14-1.15,1.14-3,0-4.15L35.94,23.22c-1.1-0.94-2.73-0.94-3.83,0
				c-1.23,1.06-1.38,2.92-0.32,4.15L44.42,40L31.79,52.66c-1.14,1.15-1.14,3,0,4.15C32.94,57.95,34.79,57.95,35.94,56.81z"/>
		</g>
	</g>
</g>
</svg>
