<?xml version="1.0" encoding="utf-8"?>
<!-- Generator: Adobe Illustrator 23.0.2, SVG Export Plug-In . SVG Version: 6.00 Build 0)  -->
<svg version="1.1" id="Capa_1" xmlns="http://www.w3.org/2000/svg" xmlns:xlink="http://www.w3.org/1999/xlink" x="0px" y="0px"
	 viewBox="0 0 80 80" style="enable-background:new 0 0 80 80;" xml:space="preserve">
<style type="text/css">
	.st0{fill:#FFFFFF;}
</style>
<g>
	<g>
		<g>
			<path class="st0" d="M40,78c20.95,0,38-17.05,38-38S60.95,2,40,2S2,19.05,2,40S19.05,78,40,78z M40,72.11
				C22.29,72.11,7.89,57.71,7.89,40C7.89,22.3,22.29,7.89,40,7.89S72.11,22.3,72.11,40S57.71,72.11,40,72.11z"/>
		</g>
	</g>
	<g>
		<g>
			<path class="st0" d="M48.21,56.81c1.14-1.15,1.14-3,0-4.15L35.58,40l12.63-12.63c1.06-1.23,0.91-3.09-0.32-4.15
				c-1.1-0.94-2.73-0.94-3.83,0L29.34,37.94c-1.14,1.15-1.14,3,0,4.15l14.72,14.72C45.21,57.95,47.06,57.95,48.21,56.81z"/>
		</g>
	</g>
</g>
</svg>
